<svg width="34" height="32" viewBox="0 0 34 32" fill="none" xmlns="http://www.w3.org/2000/svg">
<path d="M7.30575 20.6602L4.81307 24.7717H9.42238C8.41241 23.6093 7.67643 22.2047 7.30575 20.6602Z" fill="#27C29D"/>
<path d="M24.0023 24.7663H28.6116L26.1189 20.6548C25.7482 22.2047 25.0123 23.6093 24.0023 24.7663Z" fill="#27C29D"/>
<path d="M16.7122 8.7184C17.518 8.7184 18.297 8.81527 19.0491 9.00362L16.7122 5.15576L14.3753 9.00362C15.1274 8.81527 15.9064 8.7184 16.7122 8.7184Z" fill="#27C29D"/>
<path d="M7.04249 18.5293C7.04249 18.4863 7.04249 18.4432 7.04249 18.4056C7.04249 14.6169 9.21284 11.3395 12.3717 9.74653L15.2297 5.03223C8.51446 5.76951 3.28198 11.474 3.28198 18.4056C3.28198 20.1115 3.59894 21.7475 4.17913 23.249L7.04249 18.5293Z" fill="#FEFEFE"/>
<path d="M21.0533 9.74604C24.2121 11.339 26.3825 14.6164 26.3825 18.4051C26.3825 18.4481 26.3825 18.4912 26.3825 18.5288L29.2458 23.2485C29.826 21.7471 30.143 20.111 30.143 18.4051C30.143 11.4735 24.9105 5.76902 18.19 5.03174L21.0533 9.74604Z" fill="#FEFEFE"/>
<path d="M22.8045 25.9282C21.1392 27.279 19.0225 28.0916 16.7125 28.0916C14.4025 28.0916 12.2859 27.279 10.6205 25.9282H5.57604C7.98814 29.507 12.0763 31.8588 16.7125 31.8588C21.3487 31.8588 25.4369 29.507 27.849 25.9282H22.8045Z" fill="#FEFEFE"/>
<path d="M15.235 5.03182L16.7124 2.59394L18.1897 5.03182C18.7914 5.0964 19.3823 5.20403 19.9571 5.34933L16.7124 0L13.4676 5.34933C14.0424 5.20403 14.6333 5.0964 15.235 5.03182Z" fill="#27C29D"/>
<path d="M26.6562 27.4461H33.366L29.7774 21.5317C29.6377 22.1183 29.4604 22.6942 29.2455 23.2485L30.8679 25.9231H27.8488C27.4889 26.4613 27.0913 26.9672 26.6562 27.4461Z" fill="#27C29D"/>
<path d="M5.57603 25.9285H2.55687L4.17927 23.2485C3.96438 22.6942 3.7871 22.1183 3.64742 21.5317L0.0588226 27.4461H6.76864C6.3335 26.9672 5.93596 26.4613 5.57603 25.9285Z" fill="#27C29D"/>
</svg>
